<svg width="452" height="581" viewBox="0 0 452 581" fill="none" xmlns="http://www.w3.org/2000/svg">
<g filter="url(#filter0_ddddd_2754_1117)">
<rect x="21" y="4" width="410" height="503" rx="20" fill="white"/>
</g>
<path d="M402.548 449.022L402.548 449.022L402.559 449.026C402.581 449.034 402.599 449.048 402.613 449.067C402.626 449.086 402.633 449.108 402.633 449.131C402.633 449.154 402.626 449.177 402.613 449.196C402.6 449.213 402.583 449.227 402.563 449.235L397.301 450.863L396.497 451.111L397.099 451.698L402.65 457.109C402.67 457.13 402.681 457.157 402.681 457.186C402.681 457.215 402.67 457.243 402.649 457.264C402.649 457.264 402.649 457.264 402.649 457.264L401.215 458.698C401.215 458.698 401.215 458.698 401.214 458.698C401.194 458.719 401.166 458.73 401.136 458.73C401.107 458.73 401.079 458.719 401.058 458.698L401.058 458.698L401.055 458.695L395.481 453.256L394.895 452.684L394.654 453.467L393.012 458.81C393.011 458.811 393.011 458.811 393.011 458.812C393.004 458.833 392.991 458.852 392.972 458.866L393.273 459.265L392.972 458.866C392.954 458.88 392.932 458.888 392.909 458.888C392.885 458.889 392.863 458.882 392.844 458.869C392.824 458.856 392.81 458.838 392.802 458.816C392.802 458.816 392.802 458.816 392.802 458.816L387.052 443.444C387.052 443.444 387.052 443.444 387.052 443.443C387.045 443.424 387.044 443.402 387.048 443.382C387.053 443.361 387.063 443.342 387.078 443.327C387.094 443.312 387.113 443.302 387.133 443.297C387.154 443.293 387.176 443.295 387.196 443.302L387.197 443.302L402.548 449.022Z" fill="white" stroke="black"/>
<path d="M95.064 323H96.198V317.19H99.726V323H100.86V316.182H95.064V323ZM106.088 323.084C108.104 323.084 109.602 321.67 109.602 319.598C109.602 317.526 108.104 316.098 106.088 316.098C103.974 316.098 102.56 317.638 102.56 319.598C102.56 321.558 103.974 323.084 106.088 323.084ZM106.088 322.048C104.674 322.048 103.722 320.956 103.722 319.598C103.722 318.24 104.66 317.134 106.088 317.134C107.404 317.134 108.44 318.142 108.44 319.598C108.44 321.054 107.39 322.048 106.088 322.048ZM111.293 323H112.427V321.208L113.743 319.808L116.095 323H117.439L114.555 319.122L117.285 316.182H115.885L112.455 319.906H112.427V316.182H111.293V323ZM121.34 323.084C122.446 323.084 123.286 322.58 123.776 321.768H123.79V323H124.882V316.182H123.748V317.386L123.72 317.4C123.23 316.574 122.348 316.098 121.34 316.098C119.408 316.098 118.022 317.624 118.022 319.64C118.022 321.712 119.464 323.084 121.34 323.084ZM121.508 322.048C120.108 322.048 119.17 321.012 119.17 319.64C119.17 318.128 120.22 317.134 121.508 317.134C122.852 317.134 123.79 318.24 123.79 319.64C123.79 321.082 122.768 322.048 121.508 322.048ZM129.201 323.084C131.077 323.084 132.113 322.286 132.113 321.11C132.113 320.144 131.399 319.598 130.615 319.416V319.402C131.343 319.15 131.763 318.548 131.763 317.834C131.763 316.742 130.755 316.098 129.159 316.098C128.025 316.098 127.115 316.448 126.653 316.714L127.087 317.638C127.633 317.33 128.347 317.12 129.173 317.12C130.041 317.12 130.629 317.4 130.629 318.114C130.629 318.744 130.167 319.08 129.271 319.08H127.913V319.99H129.453C130.391 319.99 130.951 320.312 130.951 320.97C130.951 321.684 130.279 322.076 129.201 322.076C128.249 322.076 127.395 321.796 126.765 321.348L126.415 322.37C126.961 322.72 127.871 323.084 129.201 323.084ZM136.612 323.084C137.718 323.084 138.558 322.58 139.048 321.768H139.062V323H140.154V316.182H139.02V317.386L138.992 317.4C138.502 316.574 137.62 316.098 136.612 316.098C134.68 316.098 133.294 317.624 133.294 319.64C133.294 321.712 134.736 323.084 136.612 323.084ZM136.78 322.048C135.38 322.048 134.442 321.012 134.442 319.64C134.442 318.128 135.492 317.134 136.78 317.134C138.124 317.134 139.062 318.24 139.062 319.64C139.062 321.082 138.04 322.048 136.78 322.048ZM143.773 323H144.907V317.19H147.189V316.182H141.491V317.19H143.773V323ZM148.603 323H151.291C153.237 323 154.007 322.09 154.007 320.732C154.007 319.36 153.293 318.464 151.389 318.464H149.737V316.182H148.603V323ZM149.737 322.02V319.416H151.347C152.355 319.416 152.845 319.864 152.845 320.746C152.845 321.572 152.341 322.02 151.305 322.02H149.737ZM159.349 323H160.483V317.19H164.011V323H165.145V316.182H159.349V323ZM170.373 323.084C172.389 323.084 173.887 321.67 173.887 319.598C173.887 317.526 172.389 316.098 170.373 316.098C168.259 316.098 166.845 317.638 166.845 319.598C166.845 321.558 168.259 323.084 170.373 323.084ZM170.373 322.048C168.959 322.048 168.007 320.956 168.007 319.598C168.007 318.24 168.945 317.134 170.373 317.134C171.689 317.134 172.725 318.142 172.725 319.598C172.725 321.054 171.675 322.048 170.373 322.048ZM176.219 316.182C176.191 317.344 176.149 318.898 176.037 319.962C175.883 321.306 175.435 322.006 174.735 322.006C174.595 322.006 174.497 321.992 174.413 321.978L174.329 322.958C174.469 323.014 174.693 323.056 174.931 323.056C176.149 323.056 176.849 322.188 177.101 320.326C177.213 319.43 177.269 318.31 177.325 317.19H179.733V323H180.867V316.182H176.219ZM183.002 323H184.136V320.158H187.818V323H188.952V316.182H187.818V319.178H184.136V316.182H183.002V323ZM194.176 323.084C196.192 323.084 197.69 321.67 197.69 319.598C197.69 317.526 196.192 316.098 194.176 316.098C192.062 316.098 190.648 317.638 190.648 319.598C190.648 321.558 192.062 323.084 194.176 323.084ZM194.176 322.048C192.762 322.048 191.81 320.956 191.81 319.598C191.81 318.24 192.748 317.134 194.176 317.134C195.492 317.134 196.528 318.142 196.528 319.598C196.528 321.054 195.478 322.048 194.176 322.048ZM202.348 323.084C203.678 323.084 204.588 322.58 205.162 321.894L204.378 321.18C203.958 321.698 203.244 322.048 202.432 322.048C201.046 322.048 200.108 321.054 200.108 319.598C200.108 318.156 201.046 317.134 202.446 317.134C203.258 317.134 203.93 317.498 204.364 318.002L205.134 317.316C204.462 316.518 203.412 316.098 202.39 316.098C200.36 316.098 198.946 317.54 198.946 319.598C198.946 321.67 200.36 323.084 202.348 323.084ZM208.263 323H209.397V317.19H211.679V316.182H205.981V317.19H208.263V323ZM213.093 323H215.781C217.727 323 218.497 322.09 218.497 320.732C218.497 319.36 217.783 318.464 215.879 318.464H214.227V316.182H213.093V323ZM214.227 322.02V319.416H215.837C216.845 319.416 217.335 319.864 217.335 320.746C217.335 321.572 216.831 322.02 215.795 322.02H214.227ZM226.017 316.098C224.113 316.098 222.825 317.4 222.643 319.178H221.131V316.182H219.997V323H221.131V320.158H222.671C222.895 321.866 224.155 323.084 226.017 323.084C227.977 323.084 229.419 321.67 229.419 319.598C229.419 317.526 227.977 316.098 226.017 316.098ZM226.017 322.048C224.659 322.048 223.763 320.984 223.763 319.598C223.763 318.212 224.645 317.134 226.017 317.134C227.277 317.134 228.271 318.142 228.271 319.598C228.271 321.054 227.277 322.048 226.017 322.048Z" fill="black" fill-opacity="0.51"/>
<path d="M94 324.162H230.035V324.694H94V324.162Z" fill="black" fill-opacity="0.51"/>
<rect x="92.5" y="390.5" width="267" height="72" rx="9.5" fill="#3980FF"/>
<rect x="92.5" y="390.5" width="267" height="72" rx="9.5" stroke="#3980FF"/>
<path d="M140.256 433.136C143.163 433.136 144.829 431.657 144.829 429.498C144.829 427.832 143.86 426.931 142.432 426.574V426.54C143.656 426.064 144.217 424.942 144.217 423.786C144.217 421.916 142.789 420.794 140.409 420.794C138.76 420.794 136.992 421.355 136.159 422.154L137.281 423.735C138.148 423.038 139.117 422.698 140.154 422.698C141.48 422.698 142.126 423.225 142.126 424.177C142.126 425.265 141.361 425.877 139.967 425.877H138.335V427.645H140.12C141.871 427.645 142.687 428.342 142.687 429.464C142.687 430.603 141.803 431.232 140.29 431.232C138.964 431.232 137.859 430.79 137.026 429.634L135.7 431.215C136.805 432.49 138.42 433.136 140.256 433.136ZM150.342 433.136C151.498 433.136 152.382 432.694 152.977 431.895L153.011 431.912V433H154.83V424.704H152.926V425.707L152.892 425.724C152.297 424.976 151.379 424.585 150.325 424.585C148.047 424.585 146.33 426.387 146.33 428.886C146.33 431.453 148.047 433.136 150.342 433.136ZM150.648 431.402C149.237 431.402 148.268 430.365 148.268 428.903C148.268 427.305 149.322 426.302 150.648 426.302C152.008 426.302 153.011 427.424 153.011 428.903C153.011 430.399 151.94 431.402 150.648 431.402ZM157.232 433H159.136V430.722L160.326 429.396L162.842 433H165.069L161.686 428.274L164.882 424.704H162.553L159.17 428.614H159.136V424.704H157.232V433ZM169.633 433.136C170.789 433.136 171.673 432.694 172.268 431.895L172.302 431.912V433H174.121V424.704H172.217V425.707L172.183 425.724C171.588 424.976 170.67 424.585 169.616 424.585C167.338 424.585 165.621 426.387 165.621 428.886C165.621 431.453 167.338 433.136 169.633 433.136ZM169.939 431.402C168.528 431.402 167.559 430.365 167.559 428.903C167.559 427.305 168.613 426.302 169.939 426.302C171.299 426.302 172.302 427.424 172.302 428.903C172.302 430.399 171.231 431.402 169.939 431.402ZM179.328 433.136C181.606 433.136 182.949 432.184 182.949 430.705C182.949 429.566 182.116 428.869 181.13 428.614V428.597C182.048 428.257 182.524 427.492 182.524 426.676C182.524 425.35 181.266 424.585 179.243 424.585C177.883 424.585 176.693 425.044 176.2 425.316L176.914 426.829C177.594 426.472 178.478 426.268 179.277 426.268C180.059 426.268 180.637 426.455 180.637 427.186C180.637 427.781 180.212 428.07 179.226 428.07H177.747V429.566H179.549C180.45 429.566 181.011 429.804 181.011 430.433C181.011 431.147 180.314 431.453 179.328 431.453C178.41 431.453 177.356 431.215 176.523 430.62L175.945 432.286C176.608 432.728 177.781 433.136 179.328 433.136ZM188.376 433.136C189.532 433.136 190.416 432.694 191.011 431.895L191.045 431.912V433H192.864V424.704H190.96V425.707L190.926 425.724C190.331 424.976 189.413 424.585 188.359 424.585C186.081 424.585 184.364 426.387 184.364 428.886C184.364 431.453 186.081 433.136 188.376 433.136ZM188.682 431.402C187.271 431.402 186.302 430.365 186.302 428.903C186.302 427.305 187.356 426.302 188.682 426.302C190.042 426.302 191.045 427.424 191.045 428.903C191.045 430.399 189.974 431.402 188.682 431.402ZM197.102 433H199.006V426.37H201.59V424.704H194.518V426.37H197.102V433ZM203.318 433H206.633C209.2 433 210.118 431.793 210.118 430.127C210.118 428.427 209.268 427.254 206.718 427.254H205.222V424.704H203.318V433ZM205.222 431.385V428.835H206.65C207.653 428.835 208.18 429.243 208.18 430.144C208.18 430.977 207.653 431.385 206.65 431.385H205.222ZM216.483 433H218.387V426.37H221.787V433H223.691V424.704H216.483V433ZM226.179 436.366H228.083V431.997L228.117 431.98C228.729 432.728 229.596 433.136 230.718 433.136C233.03 433.136 234.747 431.453 234.747 428.886C234.747 426.387 233.03 424.585 230.735 424.585C229.647 424.585 228.729 424.976 228.117 425.69H228.083V424.704H226.179V436.366ZM230.429 431.402C229.069 431.402 227.998 430.399 227.998 428.903C227.998 427.424 228.984 426.302 230.412 426.302C231.738 426.302 232.809 427.305 232.809 428.903C232.809 430.365 231.823 431.402 230.429 431.402ZM236.737 433H238.573L242.398 427.594H242.432V433H244.336V424.704H242.534L238.675 430.28H238.641V424.704H236.737V433ZM248.089 424.704C248.089 425.911 248.072 427.849 247.919 429.124C247.766 430.433 247.324 431.351 246.457 431.351C246.27 431.351 246.168 431.334 246.049 431.317L245.93 432.949C246.151 433.034 246.525 433.085 246.848 433.085C248.599 433.085 249.398 431.776 249.687 429.753C249.823 428.767 249.891 427.611 249.942 426.37H252.186V433H254.09V424.704H248.089ZM260.435 433.136C262.985 433.136 264.787 431.385 264.787 428.869C264.787 426.319 262.985 424.585 260.435 424.585C257.817 424.585 256.083 426.421 256.083 428.869C256.083 431.3 257.817 433.136 260.435 433.136ZM260.435 431.402C259.007 431.402 258.021 430.28 258.021 428.869C258.021 427.424 258.99 426.302 260.435 426.302C261.795 426.302 262.849 427.339 262.849 428.869C262.849 430.365 261.778 431.402 260.435 431.402ZM265.269 433H267.411L269.774 429.43L270.726 430.518V433H272.562V430.552L273.48 429.464L275.809 433H278.002L274.823 428.461L277.832 424.704H275.656L272.579 428.665H272.562V424.704H270.726V428.58H270.692L267.598 424.704H265.354L268.431 428.461L265.269 433ZM286.57 428.75C286.57 426.336 284.989 424.585 282.66 424.585C280.229 424.585 278.495 426.302 278.495 428.852C278.495 431.453 280.28 433.136 282.796 433.136C284.581 433.136 285.618 432.473 286.315 431.572L284.989 430.433C284.564 430.96 283.884 431.402 282.898 431.402C281.606 431.402 280.705 430.688 280.467 429.481H286.519C286.536 429.345 286.57 429.056 286.57 428.75ZM282.643 426.302C283.731 426.302 284.411 426.982 284.649 427.985H280.501C280.773 426.897 281.589 426.302 282.643 426.302ZM288.534 433H290.438V429.736H294.076V433H295.98V424.704H294.076V428.121H290.438V424.704H288.534V433ZM298.462 433H300.298L304.123 427.594H304.157V433H306.061V424.704H304.259L300.4 430.28H300.366V424.704H298.462V433ZM316.121 428.75C316.121 426.336 314.54 424.585 312.211 424.585C309.78 424.585 308.046 426.302 308.046 428.852C308.046 431.453 309.831 433.136 312.347 433.136C314.132 433.136 315.169 432.473 315.866 431.572L314.54 430.433C314.115 430.96 313.435 431.402 312.449 431.402C311.157 431.402 310.256 430.688 310.018 429.481H316.07C316.087 429.345 316.121 429.056 316.121 428.75ZM312.194 426.302C313.282 426.302 313.962 426.982 314.2 427.985H310.052C310.324 426.897 311.14 426.302 312.194 426.302Z" fill="white"/>
<path d="M142.184 370H152.768V367.456H146.408L146.384 367.384L149.864 363.76C151.952 361.6 152.6 360.04 152.6 358.216C152.6 355.192 150.152 353.368 147.44 353.368C144.752 353.368 143.048 354.712 142.112 356.488L144.104 357.904C144.848 356.608 145.928 355.96 147.248 355.96C148.736 355.96 149.768 357.064 149.768 358.528C149.768 359.944 148.784 361.144 147.44 362.56L142.136 368.152L142.184 370ZM167.955 370.192C171.939 370.192 174.291 366.736 174.291 361.768C174.291 356.392 171.675 353.344 167.955 353.344C163.995 353.344 161.619 356.776 161.619 361.768C161.619 367.12 164.235 370.192 167.955 370.192ZM167.955 367.6C165.843 367.6 164.451 365.416 164.451 361.768C164.451 358.072 165.795 355.912 167.955 355.912C170.115 355.912 171.459 358.072 171.459 361.768C171.459 365.44 170.163 367.6 167.955 367.6ZM183.119 370.192C187.103 370.192 189.455 366.736 189.455 361.768C189.455 356.392 186.839 353.344 183.119 353.344C179.159 353.344 176.783 356.776 176.783 361.768C176.783 367.12 179.399 370.192 183.119 370.192ZM183.119 367.6C181.007 367.6 179.615 365.416 179.615 361.768C179.615 358.072 180.959 355.912 183.119 355.912C185.279 355.912 186.623 358.072 186.623 361.768C186.623 365.44 185.327 367.6 183.119 367.6ZM198.283 370.192C202.267 370.192 204.619 366.736 204.619 361.768C204.619 356.392 202.003 353.344 198.283 353.344C194.323 353.344 191.947 356.776 191.947 361.768C191.947 367.12 194.563 370.192 198.283 370.192ZM198.283 367.6C196.171 367.6 194.779 365.416 194.779 361.768C194.779 358.072 196.123 355.912 198.283 355.912C200.443 355.912 201.787 358.072 201.787 361.768C201.787 365.44 200.491 367.6 198.283 367.6ZM219.869 370.192C223.853 370.192 226.205 366.736 226.205 361.768C226.205 356.392 223.589 353.344 219.869 353.344C215.909 353.344 213.533 356.776 213.533 361.768C213.533 367.12 216.149 370.192 219.869 370.192ZM219.869 367.6C217.757 367.6 216.365 365.416 216.365 361.768C216.365 358.072 217.709 355.912 219.869 355.912C222.029 355.912 223.373 358.072 223.373 361.768C223.373 365.44 222.077 367.6 219.869 367.6ZM235.033 370.192C239.017 370.192 241.369 366.736 241.369 361.768C241.369 356.392 238.753 353.344 235.033 353.344C231.073 353.344 228.697 356.776 228.697 361.768C228.697 367.12 231.313 370.192 235.033 370.192ZM235.033 367.6C232.921 367.6 231.529 365.416 231.529 361.768C231.529 358.072 232.873 355.912 235.033 355.912C237.193 355.912 238.537 358.072 238.537 361.768C238.537 365.44 237.241 367.6 235.033 367.6ZM250.197 370.192C254.181 370.192 256.533 366.736 256.533 361.768C256.533 356.392 253.917 353.344 250.197 353.344C246.237 353.344 243.861 356.776 243.861 361.768C243.861 367.12 246.477 370.192 250.197 370.192ZM250.197 367.6C248.085 367.6 246.693 365.416 246.693 361.768C246.693 358.072 248.037 355.912 250.197 355.912C252.357 355.912 253.701 358.072 253.701 361.768C253.701 365.44 252.405 367.6 250.197 367.6ZM265.951 374.752H268.639V368.584L268.687 368.56C269.551 369.616 270.775 370.192 272.359 370.192C275.623 370.192 278.047 367.816 278.047 364.192C278.047 360.664 275.623 358.12 272.383 358.12C270.847 358.12 269.551 358.672 268.687 359.68H268.639V358.288H265.951V374.752ZM271.951 367.744C270.031 367.744 268.519 366.328 268.519 364.216C268.519 362.128 269.911 360.544 271.927 360.544C273.799 360.544 275.311 361.96 275.311 364.216C275.311 366.28 273.919 367.744 271.951 367.744ZM281.546 374.752H284.33L290.762 358.288H288.002L285.002 366.136H284.954L281.738 358.288H278.858L283.658 369.352L281.546 374.752ZM298.95 370.192C302.262 370.192 304.782 367.624 304.782 364.072C304.782 360.64 302.334 358.24 299.43 358.24C297.294 358.24 296.07 359.248 295.278 360.52L295.23 360.496C295.542 357.592 295.83 356.008 299.214 355.384L303.966 354.496L303.222 352.144L298.686 352.96C293.742 353.848 292.806 357.16 292.806 362.44C292.806 366.688 294.414 370.192 298.95 370.192ZM298.83 367.768C296.886 367.768 295.518 366.064 295.518 363.928C295.542 362.704 296.478 360.664 298.806 360.664C300.582 360.664 302.046 362.08 302.046 364.072C302.046 366.352 300.51 367.768 298.83 367.768ZM308.595 370.192C309.579 370.192 310.395 369.4 310.395 368.416C310.395 367.432 309.579 366.616 308.595 366.616C307.587 366.616 306.771 367.432 306.771 368.416C306.771 369.4 307.587 370.192 308.595 370.192Z" fill="black"/>
<path d="M211.307 86H217.283C221.651 86 223.403 84.008 223.403 80.504C223.403 77.672 221.939 75.44 217.307 75.44H214.211V71.552H222.107V68.96H211.307V86ZM214.211 83.408V77.984H217.307C219.227 77.984 220.403 78.8 220.403 80.672C220.403 82.424 219.419 83.408 217.283 83.408H214.211ZM226.252 86H228.844L234.244 78.368H234.292V86H236.98V74.288H234.436L228.988 82.16H228.94V74.288H226.252V86ZM244.439 86.192C247.655 86.192 249.551 84.848 249.551 82.76C249.551 81.152 248.375 80.168 246.983 79.808V79.784C248.279 79.304 248.951 78.224 248.951 77.072C248.951 75.2 247.175 74.12 244.319 74.12C242.399 74.12 240.719 74.768 240.023 75.152L241.031 77.288C241.991 76.784 243.239 76.496 244.367 76.496C245.471 76.496 246.287 76.76 246.287 77.792C246.287 78.632 245.687 79.04 244.295 79.04H242.207V81.152H244.751C246.023 81.152 246.815 81.488 246.815 82.376C246.815 83.384 245.831 83.816 244.439 83.816C243.143 83.816 241.655 83.48 240.479 82.64L239.663 84.992C240.599 85.616 242.255 86.192 244.439 86.192ZM252.268 86H254.956V81.392H260.092V86H262.78V74.288H260.092V79.112H254.956V74.288H252.268V86ZM276.987 80C276.987 76.592 274.755 74.12 271.467 74.12C268.035 74.12 265.587 76.544 265.587 80.144C265.587 83.816 268.107 86.192 271.659 86.192C274.179 86.192 275.643 85.256 276.627 83.984L274.755 82.376C274.155 83.12 273.195 83.744 271.803 83.744C269.979 83.744 268.707 82.736 268.371 81.032H276.915C276.939 80.84 276.987 80.432 276.987 80ZM271.443 76.544C272.979 76.544 273.939 77.504 274.275 78.92H268.419C268.803 77.384 269.955 76.544 271.443 76.544ZM285.04 86.192C287.584 86.192 289.096 85.28 290.08 84.008L288.232 82.376C287.632 83.168 286.576 83.744 285.28 83.744C283.216 83.744 281.8 82.304 281.8 80.144C281.8 78.008 283.192 76.544 285.28 76.544C286.552 76.544 287.56 77.096 288.232 77.888L290.056 76.304C288.88 74.864 286.96 74.12 285.136 74.12C281.584 74.12 279.064 76.568 279.064 80.168C279.064 83.744 281.584 86.192 285.04 86.192Z" fill="black"/>
<path d="M185.864 40H166.136C163.852 40 162 41.8519 162 44.1364V86.1364C162 88.4208 163.852 90.2727 166.136 90.2727H185.864C188.148 90.2727 190 88.4208 190 86.1364V44.1364C190 41.8519 188.148 40 185.864 40Z" stroke="#14161D"/>
<path fill-rule="evenodd" clip-rule="evenodd" d="M169.836 61.7961C169.836 61.5042 170.086 61.2676 170.395 61.2676H187.186C187.495 61.2676 187.746 61.5042 187.746 61.7961C187.746 62.0881 187.495 62.3248 187.186 62.3248H170.395C170.086 62.3248 169.836 62.0881 169.836 61.7961ZM170.955 63.9105C170.955 63.6186 171.206 63.382 171.515 63.382H180.47C180.779 63.382 181.029 63.6186 181.029 63.9105C181.029 64.2025 180.779 64.4392 180.47 64.4392H171.515C171.206 64.4392 170.955 64.2025 170.955 63.9105ZM170.395 65.4964C170.086 65.4964 169.836 65.733 169.836 66.0249C169.836 66.3169 170.086 66.5535 170.395 66.5535H186.067C186.376 66.5535 186.626 66.3169 186.626 66.0249C186.626 65.733 186.376 65.4964 186.067 65.4964H170.395ZM170.955 68.1393C170.955 67.8474 171.206 67.6107 171.515 67.6107H178.231C178.54 67.6107 178.791 67.8474 178.791 68.1393C178.791 68.4313 178.54 68.6679 178.231 68.6679H171.515C171.206 68.6679 170.955 68.4313 170.955 68.1393ZM171.515 69.7251C171.206 69.7251 170.955 69.9618 170.955 70.2537C170.955 70.5457 171.206 70.7823 171.515 70.7823H178.231C178.54 70.7823 178.791 70.5457 178.791 70.2537C178.791 69.9618 178.54 69.7251 178.231 69.7251H171.515Z" fill="#E4E8F4"/>
<path d="M165.287 65.9846C165.099 65.9846 164.948 66.1276 164.948 66.3044C164.948 66.4813 165.099 66.6242 165.287 66.6242C165.681 66.6242 165.991 66.7442 166.236 66.9908C166.951 67.7119 166.855 69.2253 166.853 69.2627V73.3404C166.853 74.3673 167.155 75.1595 167.75 75.6929C168.464 76.3339 169.365 76.3793 169.605 76.3793C169.638 76.3793 169.659 76.378 169.664 76.378C169.851 76.3694 169.995 76.2188 169.985 76.0419C169.975 75.8647 169.813 75.7285 169.629 75.739C169.62 75.7429 168.821 75.7723 168.216 75.2292C167.76 74.8208 167.53 74.185 167.53 73.3404L167.529 69.2842C167.535 69.2109 167.647 67.4791 166.732 66.5552C166.637 66.4599 166.535 66.3757 166.426 66.3048C166.535 66.2331 166.637 66.15 166.732 66.054C167.647 65.1288 167.535 63.3979 167.53 63.3464V59.2688C167.53 58.4273 167.759 57.7938 168.211 57.3847C168.809 56.843 169.619 56.8686 169.631 56.8698C169.817 56.8807 169.975 56.7432 169.985 56.5669C169.994 56.3904 169.851 56.2404 169.664 56.2308C169.617 56.2315 168.564 56.1861 167.751 56.9162C167.155 57.4503 166.854 58.2421 166.854 59.2688L166.854 63.3678C166.885 63.7891 166.833 65.0152 166.238 65.6168C165.992 65.8643 165.681 65.9846 165.287 65.9846Z" fill="#3980FF"/>
<path d="M168.386 40H183.614C183.459 41.0793 182.531 41.9091 181.409 41.9091H170.591C169.469 41.9091 168.541 41.0793 168.386 40Z" fill="#14161D" stroke="#14161D"/>
<path d="M194.091 49H185.909C182.646 49 180 51.6456 180 54.9091V63.0909C180 66.3544 182.646 69 185.909 69H194.091C197.354 69 200 66.3544 200 63.0909V54.9091C200 51.6456 197.354 49 194.091 49Z" fill="#F4F6FA" stroke="#14161D"/>
<path d="M194.235 51H185.765C183.686 51 182 52.6855 182 54.7647V63.2353C182 65.3145 183.686 67 185.765 67H194.235C196.314 67 198 65.3145 198 63.2353V54.7647C198 52.6855 196.314 51 194.235 51Z" fill="#E4E8F4"/>
<path d="M189.3 56.7998V56.4998C189.3 55.8371 189.837 55.2998 190.5 55.2998C191.163 55.2998 191.7 55.8371 191.7 56.4998V56.7998M186.3 58.8998C188.523 61.4409 192.477 61.4409 194.7 58.8998M186.9 57.0998H194.1C194.431 57.0998 194.7 57.3684 194.7 57.6998V63.0998C194.7 63.4312 194.431 63.6998 194.1 63.6998H186.9C186.569 63.6998 186.3 63.4312 186.3 63.0998V57.6998C186.3 57.3684 186.569 57.0998 186.9 57.0998Z" stroke="black"/>
<path d="M338 42V4H359V42L348.5 31.3824L338 42Z" fill="#0C4AB3"/>
<defs>
<filter id="filter0_ddddd_2754_1117" x="0" y="0" width="452" height="581" filterUnits="userSpaceOnUse" color-interpolation-filters="sRGB">
<feFlood flood-opacity="0" result="BackgroundImageFix"/>
<feColorMatrix in="SourceAlpha" type="matrix" values="0 0 0 0 0 0 0 0 0 0 0 0 0 0 0 0 0 0 127 0" result="hardAlpha"/>
<feOffset/>
<feColorMatrix type="matrix" values="0 0 0 0 0 0 0 0 0 0 0 0 0 0 0 0 0 0 0.05 0"/>
<feBlend mode="normal" in2="BackgroundImageFix" result="effect1_dropShadow_2754_1117"/>
<feColorMatrix in="SourceAlpha" type="matrix" values="0 0 0 0 0 0 0 0 0 0 0 0 0 0 0 0 0 0 127 0" result="hardAlpha"/>
<feOffset dy="3"/>
<feGaussianBlur stdDeviation="3.5"/>
<feColorMatrix type="matrix" values="0 0 0 0 0 0 0 0 0 0 0 0 0 0 0 0 0 0 0.05 0"/>
<feBlend mode="normal" in2="effect1_dropShadow_2754_1117" result="effect2_dropShadow_2754_1117"/>
<feColorMatrix in="SourceAlpha" type="matrix" values="0 0 0 0 0 0 0 0 0 0 0 0 0 0 0 0 0 0 127 0" result="hardAlpha"/>
<feOffset dy="13"/>
<feGaussianBlur stdDeviation="6.5"/>
<feColorMatrix type="matrix" values="0 0 0 0 0 0 0 0 0 0 0 0 0 0 0 0 0 0 0.04 0"/>
<feBlend mode="normal" in2="effect2_dropShadow_2754_1117" result="effect3_dropShadow_2754_1117"/>
<feColorMatrix in="SourceAlpha" type="matrix" values="0 0 0 0 0 0 0 0 0 0 0 0 0 0 0 0 0 0 127 0" result="hardAlpha"/>
<feOffset dy="30"/>
<feGaussianBlur stdDeviation="9"/>
<feColorMatrix type="matrix" values="0 0 0 0 0 0 0 0 0 0 0 0 0 0 0 0 0 0 0.03 0"/>
<feBlend mode="normal" in2="effect3_dropShadow_2754_1117" result="effect4_dropShadow_2754_1117"/>
<feColorMatrix in="SourceAlpha" type="matrix" values="0 0 0 0 0 0 0 0 0 0 0 0 0 0 0 0 0 0 127 0" result="hardAlpha"/>
<feOffset dy="53"/>
<feGaussianBlur stdDeviation="10.5"/>
<feColorMatrix type="matrix" values="0 0 0 0 0 0 0 0 0 0 0 0 0 0 0 0 0 0 0.01 0"/>
<feBlend mode="normal" in2="effect4_dropShadow_2754_1117" result="effect5_dropShadow_2754_1117"/>
<feBlend mode="normal" in="SourceGraphic" in2="effect5_dropShadow_2754_1117" result="shape"/>
</filter>
</defs>
</svg>
